<svg width="170" height="170" viewBox="0 0 170 170" fill="none" xmlns="http://www.w3.org/2000/svg">
<rect width="170" height="170" rx="85" fill="black"/>
<path d="M141.963 101.208C141.963 109.054 139.194 115.746 133.657 121.283C128.12 126.82 121.434 129.588 113.598 129.588C105.754 129.588 99.064 126.82 93.5269 121.283C87.9899 115.746 85.2213 109.054 85.2213 101.208V60.3736H104.725V101.208C104.773 103.526 105.727 105.734 107.383 107.356C109.04 108.979 111.266 109.888 113.585 109.888C115.903 109.888 118.129 108.979 119.786 107.356C121.442 105.734 122.396 103.526 122.444 101.208V60.3736H141.963V101.208Z" fill="#EDBA64"/>
<path d="M83.8197 101.208C83.8197 109.054 81.0512 115.746 75.5141 121.283C69.977 126.82 63.2868 129.588 55.4434 129.588C47.6001 129.588 40.9098 126.82 35.3728 121.283C29.8357 115.746 27.0671 109.054 27.0671 101.208V60.3736H46.5861V101.208C46.6336 103.526 47.5879 105.734 49.2441 107.356C50.9004 108.979 53.1267 109.888 55.4453 109.888C57.7639 109.888 59.9902 108.979 61.6464 107.356C63.3027 105.734 64.2569 103.526 64.3045 101.208V60.3736H83.8234L83.8197 101.208Z" fill="#EDBA64"/>
<path d="M46.5711 41H27V101.13H46.5711V41Z" fill="#EDBA64"/>
<path d="M142 41H122.459V101.13H142V41Z" fill="#EDBA64"/>
</svg>
