<svg width="144" height="26" viewBox="0 0 144 26" fill="none" xmlns="http://www.w3.org/2000/svg">
<path d="M33.6561 17.6225C33.6561 19.9189 32.8456 21.8774 31.2246 23.4981C29.6035 25.1187 27.646 25.9291 25.352 25.9291C23.0558 25.9291 21.0972 25.1187 19.4762 23.4981C17.8552 21.8774 17.0447 19.9189 17.0447 17.6225V5.67047H22.7546V17.6225C22.7685 18.301 23.0479 18.947 23.5328 19.4219C24.0176 19.8968 24.6694 20.1628 25.3482 20.1628C26.027 20.1628 26.6787 19.8968 27.1636 19.4219C27.6485 18.947 27.9279 18.301 27.9418 17.6225V5.67047H33.6561V17.6225Z" fill="#EDBA64"/>
<path d="M16.6342 17.6225C16.6342 19.9189 15.8237 21.8774 14.2027 23.4981C12.5817 25.1187 10.6231 25.9291 8.32687 25.9291C6.03067 25.9291 4.07207 25.1187 2.45105 23.4981C0.830038 21.8774 0.0195312 19.9189 0.0195312 17.6225V5.67047H5.73382V17.6225C5.74775 18.301 6.02712 18.947 6.51199 19.4219C6.99687 19.8968 7.64862 20.1628 8.32741 20.1628C9.00621 20.1628 9.65796 19.8968 10.1428 19.4219C10.6277 18.947 10.9071 18.301 10.921 17.6225V5.67047H16.6353L16.6342 17.6225Z" fill="#EDBA64"/>
<path d="M5.72957 0H0V17.5996H5.72957V0Z" fill="#EDBA64"/>
<path d="M33.6669 0H27.946V17.5996H33.6669V0Z" fill="#EDBA64"/>
<path d="M56.4555 17.6563C56.4555 19.9629 55.6414 21.9305 54.0131 23.5592C52.3848 25.1878 50.4167 26.0018 48.1089 26.0011C45.8018 26.0011 43.8337 25.1871 42.2047 23.5592C40.5757 21.9313 39.763 19.9636 39.7666 17.6563V5.64539H45.5071V17.6563C45.5071 18.3473 45.7817 19.0101 46.2704 19.4987C46.7592 19.9873 47.422 20.2619 48.1132 20.2619C48.8044 20.2619 49.4673 19.9873 49.9561 19.4987C50.4448 19.0101 50.7194 18.3473 50.7194 17.6563V5.64539H56.4555V17.6563Z" fill="black"/>
<path d="M75.5965 25.9989H62.5669V5.64539H68.3074V20.2597H75.5954L75.5965 25.9989Z" fill="black"/>
<path d="M98.3979 17.6563C98.3979 19.9629 97.5835 21.9305 95.9544 23.5592C94.3254 25.1878 92.3577 26.0018 90.0513 26.0011C87.7435 26.0011 85.7754 25.1871 84.1471 23.5592C82.5189 21.9313 81.7043 19.9636 81.7036 17.6563V5.64539H87.4496V17.6563C87.4635 18.338 87.7442 18.987 88.2313 19.4641C88.7184 19.9413 89.3732 20.2085 90.0552 20.2085C90.7371 20.2085 91.3919 19.9413 91.879 19.4641C92.3661 18.987 92.6468 18.338 92.6607 17.6563V5.64539H98.4023L98.3979 17.6563Z" fill="black"/>
<path d="M124.863 25.9989H120.791L114.68 19.8887L108.568 25.9989H104.497V21.952L110.616 15.8341L104.497 9.71631V5.64539H108.544L114.676 11.7752L120.807 5.64539H124.855V9.71631L118.735 15.8341L124.855 21.952L124.863 25.9989Z" fill="black"/>
<path d="M144 25.9989H130.971V5.64539H144V11.3857H136.712V12.9733H144V18.7125H136.712V20.2597H144V25.9989Z" fill="black"/>
</svg>
